<?xml version="1.0" encoding="UTF-8" standalone="no"?>
<!-- Created with Inkscape (http://www.inkscape.org/) -->
<svg
   xmlns:dc="http://purl.org/dc/elements/1.1/"
   xmlns:cc="http://creativecommons.org/ns#"
   xmlns:rdf="http://www.w3.org/1999/02/22-rdf-syntax-ns#"
   xmlns:svg="http://www.w3.org/2000/svg"
   xmlns="http://www.w3.org/2000/svg"
   xmlns:sodipodi="http://sodipodi.sourceforge.net/DTD/sodipodi-0.dtd"
   xmlns:inkscape="http://www.inkscape.org/namespaces/inkscape"
   width="50"
   height="50"
   id="svg2"
   sodipodi:version="0.32"
   inkscape:version="0.46"
   version="1.0"
   sodipodi:docname="TrapWall.svg"
   inkscape:output_extension="org.inkscape.output.svg.inkscape">
  <defs
     id="defs4">
    <inkscape:perspective
       sodipodi:type="inkscape:persp3d"
       inkscape:vp_x="0 : 526.18109 : 1"
       inkscape:vp_y="0 : 1000 : 0"
       inkscape:vp_z="744.09448 : 526.18109 : 1"
       inkscape:persp3d-origin="372.04724 : 350.78739 : 1"
       id="perspective10" />
  </defs>
  <sodipodi:namedview
     id="base"
     pagecolor="#ffffff"
     bordercolor="#666666"
     borderopacity="1.0"
     gridtolerance="10000"
     guidetolerance="10"
     objecttolerance="10"
     inkscape:pageopacity="0.0"
     inkscape:pageshadow="2"
     inkscape:zoom="14.42"
     inkscape:cx="25.097424"
     inkscape:cy="24.774182"
     inkscape:document-units="px"
     inkscape:current-layer="layer1"
     showgrid="false"
     inkscape:window-width="1279"
     inkscape:window-height="949"
     inkscape:window-x="1"
     inkscape:window-y="49" />
  <metadata
     id="metadata7">
    <rdf:RDF>
      <cc:Work
         rdf:about="">
        <dc:format>image/svg+xml</dc:format>
        <dc:type
           rdf:resource="http://purl.org/dc/dcmitype/StillImage" />
      </cc:Work>
    </rdf:RDF>
  </metadata>
  <g
     inkscape:label="Layer 1"
     inkscape:groupmode="layer"
     id="layer1">
    <path
       style="fill:none;fill-rule:evenodd;stroke:#000000;stroke-width:1.3834188px;stroke-linecap:butt;stroke-linejoin:miter;stroke-opacity:1"
       d="M 16.693776,14.622516 C 16.704258,15.106481 14.849764,11.802892 14.691753,11.09122 C 14.595982,10.659884 14.293448,10.3699 13.946052,10.009676 C 13.569274,9.6189835 12.345933,9.3450106 11.761118,9.1734859 C 10.94499,8.9341204 10.406309,9.1235605 9.8429611,9.5388529 C 9.3380913,9.9110365 9.0001967,10.343391 8.6655377,10.756387 C 8.2952466,11.21336 8.1065962,11.658777 7.8930098,12.141515 C 7.6652226,12.656352 7.2372718,12.974473 6.7155871,13.35905 C 6.3307991,13.642711 5.4884367,13.705003 4.960385,13.837327 C 3.9439325,14.092045 3.0701356,14.676625 2.1782889,15.072617 C 1.3907854,15.422279 1.1932674,16.108808 1.0897941,16.690671 C 0.99600181,17.218107 1.9131419,17.898821 2.2478408,18.28387 C 2.6681826,18.767446 3.2521126,19.081473 3.9538602,19.240073 C 4.5955045,19.38509 5.5558472,19.200355 6.0349649,18.98762 C 6.5983755,18.737459 7.0333786,18.544311 7.6247324,18.281741 C 8.3262876,17.970242 8.8745761,17.814792 9.6169111,17.628769 C 10.50003,17.407464 11.341379,17.774261 12.033855,18.060889 C 12.905067,18.421501 13.646101,18.889726 14.468187,19.295824 C 15.437895,19.774841 16.076797,20.415318 17.070438,20.873044 C 18.135068,21.363475 19.25644,22.387772 20.166509,23.018377 C 21.368033,23.85094 22.390958,24.559746 23.588483,25.389536 C 24.75762,26.199657 26.14563,27.135221 27.491858,27.75537 C 28.969224,28.435928 30.277096,29.293317 31.713685,30.002965 C 32.644574,30.462807 33.43586,31.052309 33.997483,31.698424 C 34.30584,32.053172 33.680799,32.895382 33.548373,33.194688 C 33.294005,33.7696 32.787251,34.313434 32.541354,34.869199 C 32.26406,35.495924 33.136422,36.44843 33.548868,36.922925 C 34.142024,37.605315 35.489689,37.87653 36.538625,37.864926 C 37.865914,37.850242 38.728361,37.555182 39.73058,37.026609 C 40.542575,36.598359 41.226259,36.157051 41.947314,35.625502 C 42.221639,35.423272 42.264568,34.6134 42.319918,34.302155 C 42.392891,33.891797 43.066,33.635635 43.423316,33.372228 C 43.853084,33.055409 44.449434,33.074088 44.941546,33.068644 C 45.611935,33.061226 46.41552,32.937621 47.185602,32.929101 C 47.854199,32.921705 48.564824,32.286801 48.849393,31.935615 C 49.292211,31.389141 48.575673,30.281416 48.320797,29.761878 C 47.964663,29.035933 47.12088,28.478564 46.355447,27.948179 C 45.613195,27.433855 44.587674,27.378807 43.612599,27.290233 C 42.812987,27.217598 41.70978,27.465544 40.971101,27.606245 C 40.370747,27.720598 39.734675,27.593098 39.122004,27.454631 C 38.028772,27.207552 36.959756,26.855977 35.969295,26.399717 C 34.464712,25.706619 33.035507,24.931662 31.744985,24.037433 C 30.281135,23.0231 28.663978,22.128471 27.187321,21.105263 C 25.845143,20.175241 24.160355,19.383074 22.639594,18.631845 C 21.444316,18.041397 20.432989,17.328774 19.385538,16.602974 C 18.657621,16.098584 17.999459,15.64253 17.267174,15.135114 C 16.695868,14.739243 16.425028,14.278104 16.035106,13.82952 C 15.658572,13.396341 17.220997,14.987841 16.693776,14.622516 z"
       id="path7935"
       sodipodi:nodetypes="cssssssssssssssssssssssssssssssssssssssssssssssc" />
    <path
       style="fill:none;fill-rule:evenodd;stroke:#000000;stroke-width:1.47439528px;stroke-linecap:butt;stroke-linejoin:miter;stroke-opacity:1"
       d="M 7.5356877,27.554797 C 8.1878788,27.725944 6.3274415,27.455749 5.3205379,27.311711 C 4.7102625,27.224408 4.2200581,27.345472 3.6206524,27.474409 C 2.9705454,27.614253 2.1927747,28.436262 1.76661,28.814221 C 1.1718873,29.341671 1.2450161,29.818356 1.612584,30.397223 C 1.9419988,30.916001 2.4080993,31.331008 2.8493404,31.736409 C 3.3375649,32.184977 3.871259,32.492168 4.4466085,32.831988 C 5.0602133,33.194406 5.3429784,33.63512 5.6833624,34.171176 C 5.9344263,34.566564 5.7352204,35.225426 5.7353657,35.672958 C 5.735644,36.534417 6.2259279,37.410243 6.4573826,38.229918 C 6.6617585,38.953694 7.5156473,39.356787 8.2608098,39.650167 C 8.9362738,39.916105 10.156446,39.475703 10.784867,39.365534 C 11.574088,39.227177 12.190958,38.902611 12.639042,38.431612 C 13.04875,38.000954 13.123434,37.207739 12.999094,36.767393 C 12.852875,36.249577 12.739983,35.849775 12.586511,35.306272 C 12.404443,34.66149 12.380093,34.190128 12.37989,33.560989 C 12.379646,32.812531 13.153634,32.313189 13.77021,31.896557 C 14.545926,31.372389 15.422198,30.986293 16.242397,30.516033 C 17.209874,29.961327 18.282742,29.716053 19.229716,29.135402 C 20.244348,28.513273 21.787555,28.127056 22.938196,27.67345 C 24.45734,27.074576 25.956696,26.4835 27.470782,25.886621 C 28.948978,25.303888 30.668763,24.602362 31.951765,23.815676 C 33.359746,22.952357 34.947853,22.282397 36.38114,21.460619 C 37.30989,20.928121 38.365578,20.548964 39.420066,20.364103 C 39.999031,20.262607 40.918107,21.045991 41.274833,21.256686 C 41.960039,21.661392 42.518889,22.245099 43.181276,22.636326 C 43.928235,23.077506 45.497675,22.771461 46.272074,22.635703 C 47.385765,22.440462 48.201563,21.52359 48.538035,20.727562 C 48.963795,19.720291 48.857755,18.96015 48.485636,18.008111 C 48.184151,17.236774 47.822097,16.55745 47.351631,15.816535 C 47.172643,15.534653 46.101551,15.202608 45.702956,15.045677 C 45.177431,14.838771 45.059985,14.235931 44.826849,13.868773 C 44.546437,13.427166 44.771608,12.983954 44.929465,12.610495 C 45.144506,12.101739 45.24852,11.449461 45.495542,10.865053 C 45.710012,10.357658 45.097515,9.5863772 44.722315,9.2416509 C 44.138468,8.7052249 42.413279,8.8362261 41.631387,8.8363857 C 40.53886,8.8366058 39.508626,9.267275 38.540853,9.6487889 C 37.602388,10.018749 37.184439,10.772443 36.738483,11.475658 C 36.372774,12.052332 36.334865,12.976768 36.27555,13.586377 C 36.227344,14.081835 35.842982,14.514769 35.451775,14.925982 C 34.753716,15.659736 33.923728,16.336553 32.979784,16.91534 C 31.545863,17.794565 30.027519,18.586606 28.395856,19.22984 C 26.545041,19.959464 24.803222,20.849096 22.936215,21.585104 C 21.239238,22.254085 19.612052,23.232672 18.094787,24.102599 C 16.902254,24.786338 15.607698,25.286027 14.28336,25.808106 C 13.363021,26.170922 12.530873,26.498969 11.605014,26.863963 C 10.882683,27.148717 10.173711,27.182532 9.4415996,27.310877 C 8.7346321,27.434815 8.2022802,27.292015 7.5356877,27.554797 z"
       id="path7952"
       sodipodi:nodetypes="cssssssssssssssssssssssssssssssssssssssssssssssc" />
  </g>
</svg>
