<?xml version="1.0" encoding="UTF-8" standalone="no"?>
<!-- Created with Inkscape (http://www.inkscape.org/) -->
<svg
   xmlns:dc="http://purl.org/dc/elements/1.1/"
   xmlns:cc="http://creativecommons.org/ns#"
   xmlns:rdf="http://www.w3.org/1999/02/22-rdf-syntax-ns#"
   xmlns:svg="http://www.w3.org/2000/svg"
   xmlns="http://www.w3.org/2000/svg"
   xmlns:sodipodi="http://sodipodi.sourceforge.net/DTD/sodipodi-0.dtd"
   xmlns:inkscape="http://www.inkscape.org/namespaces/inkscape"
   width="50"
   height="50"
   id="svg2"
   sodipodi:version="0.32"
   inkscape:version="0.46"
   version="1.0"
   sodipodi:docname="ExitWall.svg"
   inkscape:output_extension="org.inkscape.output.svg.inkscape">
  <defs
     id="defs4">
    <inkscape:perspective
       sodipodi:type="inkscape:persp3d"
       inkscape:vp_x="0 : 526.18109 : 1"
       inkscape:vp_y="0 : 1000 : 0"
       inkscape:vp_z="744.09448 : 526.18109 : 1"
       inkscape:persp3d-origin="372.04724 : 350.78739 : 1"
       id="perspective10" />
  </defs>
  <sodipodi:namedview
     id="base"
     pagecolor="#ffffff"
     bordercolor="#666666"
     borderopacity="1.0"
     gridtolerance="10000"
     guidetolerance="10"
     objecttolerance="10"
     inkscape:pageopacity="0.0"
     inkscape:pageshadow="2"
     inkscape:zoom="9.88"
     inkscape:cx="25"
     inkscape:cy="25"
     inkscape:document-units="px"
     inkscape:current-layer="layer1"
     showgrid="false"
     inkscape:window-width="804"
     inkscape:window-height="809"
     inkscape:window-x="5"
     inkscape:window-y="49" />
  <metadata
     id="metadata7">
    <rdf:RDF>
      <cc:Work
         rdf:about="">
        <dc:format>image/svg+xml</dc:format>
        <dc:type
           rdf:resource="http://purl.org/dc/dcmitype/StillImage" />
      </cc:Work>
    </rdf:RDF>
  </metadata>
  <g
     inkscape:label="Layer 1"
     inkscape:groupmode="layer"
     id="layer1">
    <path
       style="opacity:1;fill:#0000ff;fill-opacity:1;fill-rule:nonzero;stroke:none;stroke-width:1;stroke-linecap:square;stroke-linejoin:miter;stroke-miterlimit:4;stroke-dasharray:none;stroke-dashoffset:0;stroke-opacity:0.27555554"
       id="path2399"
       d="M 9.4411608,4.1741913 C 9.4266977,4.2232583 9.4185836,4.2755417 9.3977712,4.3213924 C 9.3578511,4.4093382 9.285274,4.4727058 9.2431385,4.5592309 C 9.1494521,4.751612 9.1017458,4.9762509 9.0560524,5.1881174 C 8.8889896,5.9736617 8.8593876,6.7834994 8.8596058,7.5891941 C 8.8265176,8.8871651 8.8397036,10.185402 8.7950947,11.482915 C 8.7531396,13.217875 8.7059958,14.95251 8.694046,16.688181 C 8.6709774,18.554528 8.6800561,20.42153 8.7025025,22.287866 C 8.7216699,23.934059 8.7140625,25.580547 8.7084683,27.226868 C 8.6941782,28.590195 8.7413777,29.953434 8.7317963,31.316605 C 8.7437831,32.329493 8.7392971,33.344172 8.7761181,34.356496 C 8.7834043,34.714265 8.8136266,35.067583 8.8513726,35.421964 C 8.8777178,35.669307 8.861072,35.823292 8.9606836,36.044524 C 8.9668723,36.049705 9.0817059,36.171565 9.0470277,36.003072 C 8.385499,32.788857 1.5553592,40.156708 1.4379988,40.231328 C 1.4010623,40.254814 1.5167879,40.280442 1.558565,40.274767 C 1.5988006,40.269302 1.6277184,40.225495 1.6622951,40.20086 C 1.6944,40.156867 1.7301341,40.116158 1.7586098,40.068882 C 1.7956611,40.007369 1.8239742,39.939256 1.8582261,39.87557 C 2.0149166,39.584225 2.1760653,39.297951 2.3503534,39.020509 C 2.489108,38.771538 2.6599758,38.559963 2.8520017,38.367002 C 2.9192813,38.299396 2.9814841,38.222501 3.0580047,38.16997 C 10.001878,33.403133 7.4971815,34.297205 10.344924,33.309461 C 10.883297,33.127376 11.440088,33.01787 11.995704,32.936405 C 12.688644,32.847794 13.378048,32.735767 14.075296,32.707667 C 14.702656,32.717751 15.332909,32.809802 15.926464,33.052084 C 15.993121,33.076483 16.059778,33.100882 16.126436,33.125281 L 9.2455006,38.413997 C 9.2180446,38.383811 9.1905886,38.353626 9.1631325,38.32344 C 8.751805,38.059283 8.3328011,38.001594 7.8653453,38.034116 C 7.1643293,38.095185 6.4673367,38.226645 5.7835053,38.416841 C 5.211493,38.585495 4.6333279,38.751369 4.1127915,39.087598 C 1.7746729,40.856792 3.6208871,39.454171 10.49432,34.770739 C 10.560097,34.72592 10.357372,34.848919 10.291469,34.893486 C 10.280692,34.900775 9.9406245,35.159294 9.9305077,35.167542 C 9.8761692,35.211834 9.8244503,35.260352 9.7714224,35.306759 C 9.5817767,35.569235 9.3687718,35.852339 9.3221763,36.201871 C 9.3230278,36.248056 9.3201591,36.294539 9.3247308,36.340424 C 9.3311546,36.404912 9.4036226,36.50032 9.355058,36.531944 C 8.5526693,37.05443 2.5929979,43.953353 1.5942662,40.817016 C 1.5787004,40.768135 1.6125175,40.415625 1.6155756,40.377899 C 1.6887878,40.097815 1.7542941,39.817839 1.8161776,39.534054 C 1.8419497,39.415869 1.8751114,39.299649 1.894666,39.179849 C 1.9404002,38.899663 1.9415191,38.611121 1.9956602,38.332328 C 2.1336377,37.246867 2.2346186,36.156491 2.3396999,35.06622 C 2.465794,33.640223 2.6073275,32.215264 2.6770707,30.783482 C 2.7727021,29.09445 2.8401195,27.403004 2.9194771,25.712779 C 2.9976691,23.84765 3.0489097,21.979954 2.9582254,20.113575 C 2.9012708,18.464419 2.771019,16.823428 2.634981,15.181025 C 2.5109018,13.996194 2.3997706,12.80814 2.1945663,11.637525 C 2.096991,10.983279 1.9616839,10.338705 1.8576543,9.6864461 C 1.8434893,9.5976311 1.8363175,9.5074901 1.8256491,9.4180131 C 1.7929969,9.1111141 1.7368928,8.7976041 1.7162292,8.4945964 L 9.4411608,4.1741913 z" />
    <path
       style="opacity:1;fill:#0000ff;fill-opacity:1;fill-rule:nonzero;stroke:none;stroke-width:1;stroke-linecap:square;stroke-linejoin:miter;stroke-miterlimit:4;stroke-dasharray:none;stroke-dashoffset:0;stroke-opacity:0.27555554"
       id="path2401"
       d="M 3.851134,27.021782 C 3.8826243,26.994448 3.9180478,26.972395 3.9456048,26.939781 C 3.9770393,26.902577 3.9980052,26.854962 4.0262998,26.814469 C 4.1807698,26.5934 4.304973,26.430675 4.4253293,26.176196 C 4.5439426,25.971923 4.6582945,25.76371 4.79711,25.576762 C 6.6807922,23.03993 9.723887,22.111472 12.215926,20.43604 C 12.653102,20.320537 13.107395,20.361388 13.553064,20.344984 C 13.842151,20.35481 14.12553,20.403513 14.412211,20.441241 L 7.615796,25.974938 C 7.43819,25.898464 7.242703,25.897986 7.055672,25.919757 C 6.6316229,25.959806 6.2250835,26.065493 5.8786231,26.372384 C 8.1419694,24.842909 10.411345,23.325531 12.668662,21.783957 C 12.723967,21.746189 12.545719,21.827734 12.487519,21.859017 C 12.283057,21.968918 12.094149,22.139755 11.94771,22.337218 C 11.916676,22.379399 11.87931,22.416219 11.854608,22.46376 C 11.84162,22.488757 11.699295,22.900379 11.696181,22.939029 C 11.69432,22.96215 11.707052,22.983708 11.712488,23.006046 L 3.851134,27.021782 z" />
    <path
       style="opacity:1;fill:#0000ff;fill-opacity:1;fill-rule:nonzero;stroke:none;stroke-width:1;stroke-linecap:square;stroke-linejoin:miter;stroke-miterlimit:4;stroke-dasharray:none;stroke-dashoffset:0;stroke-opacity:0.27555554"
       id="path2403"
       d="M 2.4532948,11.774043 C 2.4626335,11.693237 2.4599371,11.60925 2.481311,11.531624 C 2.5005257,11.461839 2.5437586,11.404396 2.5729446,11.339496 C 2.6134097,11.249514 2.6459552,11.154589 2.6902187,11.067079 C 2.8719903,10.707711 3.1096028,10.383077 3.3304544,10.056922 C 3.9679856,9.1246221 4.7327959,8.3307899 5.5025889,7.5525502 C 8.1114364,5.0745683 11.053169,3.0261618 14.143401,1.4812148 C 14.474427,1.3578253 14.805324,1.2370249 15.153589,1.3409702 C 15.247697,1.3690582 15.334088,1.4248356 15.424337,1.4667682 L 8.7213319,6.8551898 C 8.5160877,6.8815081 8.3159926,6.954029 8.1269414,7.0502717 C 5.773798,8.3606015 7.9246238,7.1726691 13.905975,3.0960832 C 14.05007,2.9978754 13.611887,3.2803939 13.467966,3.3789473 C 13.203255,3.5602138 12.841005,3.8341415 12.591572,4.0409744 C 12.451016,4.1575242 12.315506,4.2821515 12.177473,4.4027399 C 11.535765,5.0140105 10.902872,5.6634952 10.429811,6.4647285 C 10.318243,6.6767471 10.226,6.8774476 10.147194,7.1078765 C 10.13646,7.1392629 10.118539,7.1684983 10.115003,7.2020412 C 10.112042,7.2301412 10.128636,7.2571972 10.128472,7.2855085 C 10.128337,7.3091495 10.119438,7.239417 10.114921,7.2163711 L 2.4532948,11.774043 z" />
    <path
       style="opacity:1;fill:#0000ff;fill-opacity:1;fill-rule:nonzero;stroke:none;stroke-width:1;stroke-linecap:square;stroke-linejoin:miter;stroke-miterlimit:4;stroke-dasharray:none;stroke-dashoffset:0;stroke-opacity:0.27555554"
       id="path2405"
       d="M 24.944581,17.06637 C 24.548376,18.084744 24.173975,19.113021 23.816134,20.150684 C 23.074265,22.228279 22.494209,24.374791 21.965888,26.537214 C 21.705686,27.733073 21.521149,28.953469 21.472066,30.187251 C 21.463381,30.405531 21.453808,30.624247 21.459935,30.842645 C 21.464773,31.015143 21.489912,31.186047 21.504901,31.357748 C 21.556748,31.524662 21.57692,32.026108 21.809267,32.072085 C 21.857321,32.081593 21.903495,32.04294 21.950609,32.028368 L 14.31543,36.484358 C 14.365268,36.428491 14.423047,36.380896 14.464944,36.316755 C 14.526873,36.221949 14.57363,36.114783 14.62441,36.011338 C 14.852866,35.545945 14.832985,35.561141 15.04063,35.029843 C 15.662777,33.217087 16.170087,31.35369 16.654474,29.485376 C 17.111175,27.565755 17.573586,25.61923 17.647257,23.618213 C 17.649613,23.045798 17.649478,22.626149 17.538215,22.069244 C 17.503935,21.897661 17.476455,21.691157 17.335773,21.592623 L 24.944581,17.06637 z" />
    <path
       style="opacity:1;fill:#0000ff;fill-opacity:1;fill-rule:nonzero;stroke:none;stroke-width:1;stroke-linecap:square;stroke-linejoin:miter;stroke-miterlimit:4;stroke-dasharray:none;stroke-dashoffset:0;stroke-opacity:0.27555554"
       id="path2407"
       d="M 20.619312,19.630242 C 20.551728,19.607948 20.454324,19.544774 20.386983,19.627737 C 20.207199,19.84923 20.334943,20.691391 20.363702,20.938042 C 20.685551,22.56884 21.346316,24.06041 22.018921,25.524375 C 22.63208,26.775156 23.323512,27.98162 24.095261,29.107661 C 24.499412,29.697347 24.76646,30.018699 25.199826,30.569547 C 25.779037,31.269813 26.416436,31.93032 27.190462,32.319627 C 27.316217,32.382877 27.44397,32.445088 27.577586,32.480043 C 27.684704,32.508066 27.796599,32.497913 27.906106,32.506848 L 21.319718,37.51929 C 21.191884,37.302783 21.046254,37.061462 20.929717,36.838962 C 20.505932,36.029848 20.142301,35.178688 19.699605,34.382627 C 18.762272,32.59361 17.850819,30.779467 16.71493,29.14675 C 16.217127,28.409999 16.126449,28.261834 15.613732,27.556636 C 15.156684,26.928007 14.67492,26.330338 14.195051,25.726099 C 14.07477,25.574641 13.957382,25.420084 13.838546,25.267076 C 13.436413,24.765761 12.996862,24.286982 12.757958,23.645976 L 20.619312,19.630242 z" />
    <path
       style="opacity:1;fill:#0000ff;fill-opacity:1;fill-rule:nonzero;stroke:none;stroke-width:1;stroke-linecap:square;stroke-linejoin:miter;stroke-miterlimit:4;stroke-dasharray:none;stroke-dashoffset:0;stroke-opacity:0.27555554"
       id="path2409"
       d="M 33.272601,16.766928 C 33.247689,16.784408 33.216464,16.793294 33.197863,16.819369 C 33.164888,16.865592 33.149006,16.925336 33.122698,16.977059 C 33.090452,17.040455 33.051617,17.099334 33.022257,17.164614 C 32.881276,17.478075 32.801538,17.819817 32.719448,18.158119 C 32.394193,19.533876 32.312474,20.963942 32.257736,22.383046 C 32.225959,24.179336 32.327938,25.973583 32.493228,27.758374 C 32.600897,28.847341 32.718736,29.964447 33.073986,30.989328 C 33.116216,31.111159 33.170203,31.226975 33.218311,31.345799 C 33.284988,31.476369 33.366644,31.689556 33.496223,31.77062 C 33.532027,31.793019 33.577399,31.774398 33.617987,31.776286 L 26.374747,36.52165 C 26.395866,36.173635 26.452041,35.833563 26.466854,35.484492 C 26.613336,34.091049 26.703162,32.68969 26.658811,31.284368 C 26.624289,29.497987 26.556947,27.711304 26.355929,25.938151 C 26.190958,24.697665 26.038812,23.451395 25.787525,22.229824 C 25.643954,21.490832 25.794683,22.243635 25.65499,21.604288 C 25.612622,21.410384 25.585669,21.204929 25.493711,21.032099 L 33.272601,16.766928 z" />
    <path
       style="opacity:1;fill:#0000ff;fill-opacity:1;fill-rule:nonzero;stroke:none;stroke-width:1;stroke-linecap:square;stroke-linejoin:miter;stroke-miterlimit:4;stroke-dasharray:none;stroke-dashoffset:0;stroke-opacity:0.27555554"
       id="path2417"
       d="M 32.213584,8.2501857 C 32.218617,8.2645929 32.221417,8.2803623 32.22868,8.2934074 C 32.236142,8.3068107 32.247557,8.3165707 32.256995,8.3281525 C 32.276428,8.3668619 32.298094,8.4041577 32.315296,8.4442807 C 32.352821,8.5318095 32.376514,8.623363 32.419985,8.7087868 C 32.424916,8.7251241 32.427387,8.7427793 32.434779,8.7577989 C 32.492459,8.8750131 32.438561,8.736831 32.501078,8.8377591 C 32.569343,8.9479671 32.606621,9.1063411 32.652113,9.2285261 C 32.670784,9.3429151 32.671388,9.4725781 32.653777,9.5882361 C 32.636157,9.7039541 32.619059,9.6508961 32.588807,9.7513701 C 32.576565,9.7920281 32.572167,9.8353471 32.563847,9.8773351 C 32.554825,9.9478931 32.536093,10.023655 32.510039,10.087987 C 32.490791,10.135516 32.459546,10.147464 32.4492,10.202323 C 32.371274,10.107198 32.409167,10.206655 32.422425,10.254181 C 32.440597,10.319327 32.443517,10.356196 32.453565,10.425197 C 32.498343,10.560131 32.484719,10.703855 32.501149,10.843036 C 32.506688,10.917798 32.487576,10.991788 32.487125,11.066025 C 32.486989,11.088442 32.499514,11.111651 32.493351,11.132882 C 32.474982,11.196175 32.458736,11.078098 32.471773,11.149376 C 32.490646,11.272674 32.520213,11.387563 32.585439,11.487957 C 32.598621,11.507223 32.613997,11.524134 32.628128,11.542394 L 24.943398,16.240347 C 24.959914,16.230711 24.967942,16.218227 24.974163,16.19467 C 25.002903,16.09488 25.00916,15.997362 24.975301,15.897487 C 24.95539,15.812361 24.920174,15.732306 24.904595,15.645958 C 24.900261,15.621928 24.911082,15.59722 24.910957,15.572664 C 24.910627,15.508797 24.891575,15.445323 24.896141,15.380907 C 24.906047,15.281494 24.893571,15.180666 24.909539,15.081046 C 24.895453,14.911936 24.845107,14.753299 24.79551,14.593838 C 24.813792,14.401617 24.788657,14.202129 24.903667,14.040841 C 24.956856,13.949621 24.931253,13.856843 24.962191,13.813594 C 24.969676,13.803133 24.98844,13.820966 24.997184,13.811936 C 25.038582,13.769196 24.966944,13.752402 25.036746,13.782044 C 25.222281,13.983159 25.037549,13.678181 25.016659,13.623482 C 25.007235,13.588751 24.982799,13.530927 24.943576,13.524749 C 24.9345,13.52332 24.959047,13.556822 24.949921,13.555954 C 24.920874,13.553194 24.918309,13.480629 24.877528,13.498722 L 32.213584,8.2501857 z" />
    <path
       style="opacity:1;fill:#0000ff;fill-opacity:1;fill-rule:nonzero;stroke:none;stroke-width:1;stroke-linecap:square;stroke-linejoin:miter;stroke-miterlimit:4;stroke-dasharray:none;stroke-dashoffset:0;stroke-opacity:0.27555554"
       id="path2419"
       d="M 12.222968,43.21755 C 12.287419,43.298495 12.446735,43.313585 12.52918,43.325833 C 12.831371,43.37073 13.129235,43.348462 13.432547,43.333159 C 14.353295,43.261879 15.2672,43.102568 16.176837,42.926097 C 17.303978,42.722254 18.416882,42.425325 19.530764,42.141765 C 20.801725,41.798121 22.079198,41.488776 23.350691,41.147204 C 24.738863,40.765366 26.127495,40.386513 27.512526,39.989315 C 28.906194,39.583235 30.29693,39.165366 31.695257,38.781401 C 32.921074,38.41607 34.146807,38.050311 35.375969,37.70063 C 35.910647,37.538409 36.44796,37.393255 36.988928,37.263216 L 31.191963,42.381019 C 30.709783,42.48218 30.228194,42.586835 29.748801,42.70497 C 28.605132,42.9938 27.460447,43.277389 26.315884,43.561088 C 24.958584,43.903339 23.608876,44.283506 22.260892,44.672518 C 20.847,45.073907 19.435427,45.485856 18.022469,45.89164 C 16.695395,46.268598 15.367125,46.639809 14.041739,47.024827 C 12.851908,47.365345 11.656983,47.68327 10.455346,47.962083 C 9.4329429,48.188859 8.4049686,48.379393 7.3803194,48.591804 C 7.0938979,48.648924 6.8064208,48.699068 6.5208009,48.76142 C 6.1901257,48.833607 5.8687836,48.939156 5.5418978,49.027868 C 5.4667168,49.048271 5.390175,49.061107 5.3143135,49.077728 L 12.222968,43.21755 z" />
    <path
       style="opacity:1;fill:#0000ff;fill-opacity:1;fill-rule:nonzero;stroke:none;stroke-width:1;stroke-linecap:square;stroke-linejoin:miter;stroke-miterlimit:4;stroke-dasharray:none;stroke-dashoffset:0;stroke-opacity:0.27555554"
       id="path2421"
       d="M 28.728956,41.659111 C 28.930941,41.708117 29.209851,41.591018 29.404422,41.542014 C 29.961183,41.401793 29.639159,41.490177 30.242749,41.311377 C 31.517996,40.966637 32.799352,40.649807 34.090607,40.398527 C 35.630622,40.113271 37.184121,39.974864 38.739882,39.880251 C 39.471678,39.835278 40.203821,39.799331 40.935758,39.757692 L 35.448494,44.423449 C 34.785719,44.39973 34.122831,44.382275 33.459687,44.401149 C 31.92989,44.466419 30.399995,44.605549 28.900464,44.985039 C 27.459537,45.368958 26.018805,45.772214 24.636676,46.394157 C 23.745498,46.799065 22.86831,47.239146 22.016352,47.747611 L 28.728956,41.659111 z" />
    <path
       style="opacity:1;fill:#0000ff;fill-opacity:1;fill-rule:nonzero;stroke:none;stroke-width:1;stroke-linecap:square;stroke-linejoin:miter;stroke-miterlimit:4;stroke-dasharray:none;stroke-dashoffset:0;stroke-opacity:0.27555554"
       id="path2469"
       d="M 41.073733,5.8292414 C 41.079485,6.1159146 41.093408,6.3989238 41.064268,6.684533 C 41.032904,7.2081912 40.993754,7.7333784 40.983892,8.2585449 C 40.969291,9.0848151 40.955601,9.9109811 40.955963,10.73759 C 40.952839,11.780631 40.934458,12.823613 40.932082,13.866727 C 40.933386,14.94662 40.918325,16.026722 40.946444,17.106348 C 40.974968,18.208191 41.033332,19.310311 41.132738,20.406637 C 41.245522,21.436685 41.379223,22.462504 41.551611,23.481196 C 41.679352,24.258561 41.832788,25.029028 41.9837,25.800358 C 42.08822,26.250179 42.192487,26.701311 42.335329,27.136864 C 42.415812,27.361316 42.51988,27.572398 42.615374,27.788216 C 42.669652,27.884932 42.720152,28.000312 42.787013,28.087367 C 42.793939,28.096385 42.805812,28.097619 42.815213,28.102744 C 42.833935,28.127747 42.852659,28.152749 42.871382,28.177751 C 42.907759,28.273236 42.941537,28.249943 43.005341,28.292571 C 43.065679,28.332882 43.059829,28.358833 43.127714,28.331818 C 43.153351,28.121184 43.114269,28.339843 43.173206,28.18759 C 43.184505,28.158402 43.18014,28.121622 43.195517,28.095095 C 43.208839,28.072109 43.24024,28.070264 43.25422,28.047819 C 43.273149,28.017432 43.267368,27.969742 43.290139,27.943192 C 43.308646,27.921615 43.340428,27.926389 43.365572,27.917988 C 43.51391,27.77453 43.331634,27.935967 43.520237,27.82088 C 43.5477,27.804121 43.567131,27.7725 43.594582,27.755713 C 43.625006,27.737106 43.661335,27.7344 43.691828,27.715946 C 43.928175,27.572911 43.597279,27.71979 43.868117,27.609816 C 43.894114,27.587949 43.915972,27.556924 43.946108,27.544215 C 43.980567,27.529683 44.020223,27.542688 44.055424,27.530821 C 44.122493,27.50821 44.180053,27.457321 44.242935,27.421926 C 44.383498,27.342806 44.31769,27.37434 44.475808,27.31722 C 44.729635,27.263627 44.952149,27.128753 45.181289,26.999535 C 45.713039,26.699664 45.096996,27.067495 45.638554,26.738978 C 48.054775,25.14245 45.755756,26.660709 39.384949,30.93929 C 39.307192,30.991512 39.542098,30.838134 39.619007,30.784225 C 39.831129,30.635538 40.027802,30.466053 40.223319,30.289809 C 40.557707,29.997422 40.770157,29.617421 40.986298,29.211055 C 41.132994,28.857564 41.220608,28.474698 41.225644,28.08209 C 41.225503,27.906156 41.232107,27.736387 41.121211,27.603001 C 41.043228,27.535412 41.085239,27.643128 41.103626,27.687834 L 48.613396,22.604619 C 48.656545,22.707549 48.667226,22.795093 48.647836,22.909587 C 48.621772,23.215311 48.660648,23.520898 48.61055,23.822282 C 48.525125,24.312354 48.449651,24.803962 48.324138,25.283055 C 48.178784,25.832625 47.93123,26.350479 47.600182,26.77764 C 47.399144,27.01434 47.192478,27.233103 46.966215,27.437154 C 46.88876,27.507006 46.814633,27.583363 46.73001,27.640774 C 40.119649,32.125441 42.130478,30.944246 39.472855,32.495096 C 39.298383,32.592706 39.125887,32.695173 38.950246,32.789881 C 38.643971,32.955026 38.323424,33.085003 38.032452,33.287593 C 37.857255,33.402459 37.889753,33.386583 37.720484,33.478632 C 37.641165,33.521765 37.554347,33.546838 37.47898,33.59874 C 37.446259,33.621274 37.424223,33.661565 37.391378,33.68385 C 37.361074,33.704412 37.325401,33.711501 37.292411,33.725326 C 37.107795,33.861828 37.328619,33.708542 37.112253,33.824403 C 37.083354,33.839877 37.059585,33.86678 37.030485,33.881729 C 36.997161,33.898848 36.959814,33.903384 36.926281,33.919938 C 36.714213,34.024618 36.981642,33.933039 36.732787,34.007638 C 36.703736,34.02456 36.67801,34.055594 36.645635,34.058405 C 36.607473,34.061719 36.57236,34.03125 36.534486,34.024856 C 36.499745,34.018991 36.463365,34.03132 36.429208,34.021868 C 36.285601,33.982125 36.15238,33.881747 36.044607,33.769285 C 35.880196,33.613454 35.737108,33.446616 35.607862,33.250415 C 35.486088,33.055787 35.377177,32.855419 35.314458,32.623482 C 35.199111,32.329142 35.128761,32.01017 35.104496,31.687636 C 35.041948,31.149715 35.057211,30.6074 35.026564,30.066495 C 35.005759,29.230016 34.990127,28.39389 34.926251,27.559707 C 34.846133,26.494192 34.742365,25.432176 34.640964,24.369058 C 34.541352,23.258005 34.458859,22.145918 34.398388,21.031019 C 34.388804,20.665752 34.368513,20.300865 34.362992,19.935484 C 34.35216,19.218697 34.375064,18.500552 34.357715,17.783661 C 34.344649,16.786081 34.314051,15.788225 34.224361,14.795557 C 34.151357,14.032065 34.054801,13.272201 33.952887,12.513485 C 33.887431,12.04333 33.808634,11.575232 33.688759,11.119293 C 33.65659,10.987597 33.650464,10.747751 33.545869,10.6696 L 41.073733,5.8292414 z" />
    <path
       style="opacity:1;fill:#0000ff;fill-opacity:1;fill-rule:nonzero;stroke:none;stroke-width:1;stroke-linecap:square;stroke-linejoin:miter;stroke-miterlimit:4;stroke-dasharray:none;stroke-dashoffset:0;stroke-opacity:0.27555554"
       id="path2493"
       d="M 36.378134,20.172724 C 36.387918,20.176593 36.406013,20.196267 36.407488,20.184329 C 36.411792,20.149485 36.386563,20.115864 36.389489,20.080824 C 36.394626,20.019299 36.508359,20.067853 36.536202,20.03981 C 36.551568,20.024335 36.548843,19.994782 36.555164,19.972268 C 36.617568,19.932252 36.682203,19.977002 36.743591,19.931217 C 36.765602,19.9148 36.777353,19.881219 36.801495,19.869581 C 36.832778,19.854498 36.869171,19.863192 36.902232,19.854733 C 36.936553,19.845952 36.969311,19.830285 37.002851,19.818062 C 37.039983,19.800637 37.0786,19.787019 37.114249,19.765787 C 37.197524,19.716191 37.27068,19.641466 37.357615,19.599206 C 37.407064,19.575168 37.460748,19.565214 37.511607,19.545591 C 37.632349,19.499006 37.695417,19.465634 37.813281,19.408805 C 38.162619,19.298047 38.496955,19.14007 38.851098,19.048489 C 38.914771,19.043048 38.979225,19.044993 39.042117,19.032166 C 39.104165,19.019511 39.162695,18.98921 39.224021,18.972429 C 39.528856,18.889015 39.28798,18.96953 39.593707,18.906454 C 39.650141,18.894812 39.705103,18.874958 39.760801,18.859209 C 39.819313,18.848428 39.877824,18.837649 39.936335,18.826869 C 40.266985,18.740803 40.585349,18.614307 40.910753,18.503031 C 40.998008,18.464242 41.112797,18.40925 41.203903,18.385169 C 41.25424,18.371865 41.307245,18.374794 41.35717,18.359515 C 41.403041,18.345475 41.443711,18.313239 41.48926,18.297833 C 41.788764,18.196534 41.477972,18.348438 41.753594,18.201201 C 41.874039,18.140713 42.00772,18.107814 42.127602,18.047309 C 42.165835,18.028012 42.196612,17.991194 42.235454,17.973631 C 42.61675,17.801216 42.115203,18.09027 42.469875,17.87591 C 42.659261,17.879124 42.791286,17.72394 42.954799,17.648561 C 43.04881,17.605223 43.149036,17.582732 43.244371,17.543526 C 43.359416,17.516254 43.454893,17.499939 43.564657,17.449077 C 43.616687,17.424968 43.663102,17.386038 43.715294,17.362409 C 43.768169,17.33847 43.824718,17.327375 43.878655,17.306918 C 43.929932,17.287469 43.980069,17.264142 44.030776,17.242755 C 44.085297,17.22295 44.139819,17.203145 44.194341,17.18334 C 44.249364,17.173177 44.305532,17.169385 44.35941,17.152853 C 44.48678,17.095815 44.51576,17.078149 44.647613,17.037715 C 44.779124,16.997388 44.909975,16.979561 45.045017,16.967133 C 45.247374,16.951777 45.449859,16.983834 45.65183,16.966115 C 45.678126,16.965548 45.707323,16.978446 45.730717,16.964417 C 45.750926,16.952298 45.750157,16.914856 45.767001,16.897053 C 45.818548,16.842569 45.985975,16.828212 46.053308,16.825957 C 46.0843,16.821459 46.250964,16.847179 46.272191,16.833334 C 46.289918,16.821772 46.281221,16.784432 46.295571,16.767658 C 46.325662,16.732488 46.374704,16.730924 46.414264,16.712538 C 46.442923,16.640391 46.502831,16.712257 46.538594,16.686288 C 46.7115,16.560737 46.386461,16.671279 46.610046,16.608503 L 39.894042,22.704377 C 39.738108,22.780411 39.932649,22.701763 39.736838,22.717343 C 39.722033,22.71852 39.712297,22.736828 39.700027,22.74657 C 39.6861,22.747013 39.672173,22.747455 39.658245,22.747898 C 39.611819,22.75304 39.565624,22.772382 39.519257,22.766564 C 39.483785,22.762112 39.452015,22.735923 39.416547,22.731424 C 39.369644,22.725473 39.301934,22.769519 39.258133,22.780573 C 39.176979,22.811793 39.062338,22.848748 38.977231,22.829743 C 38.940009,22.821431 38.906796,22.79589 38.869799,22.786307 C 38.848437,22.780773 38.826044,22.785378 38.804166,22.784913 C 38.648211,22.768396 38.491187,22.807819 38.341033,22.854446 C 38.212752,22.899457 38.085529,22.951196 37.955009,22.986921 C 37.909315,22.999428 37.861956,23.003988 37.817131,23.020225 C 37.771842,23.036631 37.729659,23.063007 37.685923,23.084397 C 37.539313,23.145311 37.393508,23.216714 37.246161,23.273656 C 37.086138,23.335497 36.915888,23.365682 36.770795,23.475026 C 36.718485,23.500813 36.666177,23.526601 36.613867,23.55239 C 36.567619,23.580762 36.523034,23.613184 36.475123,23.637507 C 36.292179,23.730385 36.085189,23.745803 35.913605,23.87243 C 35.419835,24.021673 36.143049,23.793239 35.673142,23.9737 C 35.633308,23.988998 35.590194,23.989257 35.549674,24.001865 C 35.428049,24.039706 35.309768,24.096227 35.185292,24.12367 C 34.907017,24.176124 34.645731,24.295119 34.369873,24.363534 C 34.048251,24.453904 33.72537,24.525859 33.399097,24.587588 C 33.057885,24.672201 32.706023,24.726631 32.380565,24.87617 C 32.045883,25.024573 31.702666,25.151684 31.380844,25.335902 C 31.068553,25.491886 30.777064,25.693989 30.449562,25.807387 C 30.40314,25.830152 30.35536,25.849459 30.310296,25.875683 C 30.272585,25.897628 30.241223,25.933976 30.201862,25.951534 C 30.162894,25.968917 30.119379,25.966987 30.078929,25.978892 C 29.909264,26.028823 30.027051,25.992475 29.914154,26.06924 C 29.893617,26.083204 29.870646,26.091589 29.848893,26.102764 C 29.817948,26.09661 29.787448,26.084566 29.756058,26.084301 C 29.690659,26.083747 29.657231,26.172968 29.583872,26.141215 C 29.54463,26.124229 29.517659,26.078397 29.478239,26.061975 C 29.460162,26.054444 29.440429,26.069712 29.421523,26.073581 L 36.378134,20.172724 z" />
  </g>
</svg>
